# xmcd CD database file
# Copyright (C) 1997 Ti Kan
#
# Track frame offsets:
#  150
#  18370
#  30952
#  46770
#  62222
#  79005
#  96862
#  113345
#  130925
#  144070
#  160265
#  181200
#  200000
#  219192
#
# Disc length: 3504 seconds
#
# Revision: 1
# Processed by: cddbd v1.4b41PL1 Copyright (c) Steve Scherf et al.
# Submitted via: CDWizzard Release:4.31
#
DISCID=a80dae0e
DTITLE=Cassandra Vasik - Feels Like Home
DYEAR=1900
DGENRE=
TTITLE0=Sadly Mistaken
TTITLE1=Fortune Smiled On Me
TTITLE2=The Man I Never Knew
TTITLE3=Stand Your Ground
TTITLE4=Almost Like You Cared
TTITLE5=Lavander Hill
TTITLE6=Afraid To Drive
TTITLE7=She Talks
TTITLE8=Roll Like A Wheel
TTITLE9=As Far As The Story Goes
TTITLE10=Sometimes A Harbour
TTITLE11=The Parade
TTITLE12=I Can Forgive, But I Can't Forget
TTITLE13=Let Sleeping Doges Lie
EXTD=
EXTT0=
EXTT1=
EXTT2=
EXTT3=
EXTT4=
EXTT5=
EXTT6=
EXTT7=
EXTT8=
EXTT9=
EXTT10=
EXTT11=
EXTT12=
EXTT13=
PLAYORDER=
